<svg xmlns="http://www.w3.org/2000/svg" viewBox="0 0 100 100" width="100" height="100">
  <rect width="100" height="100" rx="20" fill="#0B0B0B" />
  <polygon
    points="50,6 60.1,15.3 73.5,12.3 77.6,25.4 90.7,29.5 87.7,42.9 97,53 87.7,63.1 90.7,76.5 77.6,80.6 73.5,93.7 60.1,90.7 50,100 39.9,90.7 26.5,93.7 22.4,80.6 9.3,76.5 12.3,63.1 3,53 12.3,42.9 9.3,29.5 22.4,25.4 26.5,12.3 39.9,15.3"
    fill="none" stroke="#FFFFFF" stroke-width="5" stroke-linejoin="miter"
    transform="translate(0 -3)"
  />
  <path d="M54 8 L26 58 L46 58 L40 96 L76 44 L52 44 Z" fill="#DA261B" transform="translate(0 -2)" />
</svg>
